<svg xmlns="http://www.w3.org/2000/svg" width="2048" height="2048" shape-rendering="geometricPrecision" image-rendering="optimizeQuality" fill-rule="evenodd" xmlns:v="https://vecta.io/nano"><defs><clipPath id="A"><path d="M1024-.001c565.539 0 1024 458.462 1024 1024s-458.462 1024-1024 1024S0 1589.537 0 1023.999s458.462-1024 1024-1024z"/></clipPath></defs><path d="M1024-.001c565.539 0 1024 458.462 1024 1024s-458.462 1024-1024 1024S0 1589.537 0 1023.999s458.462-1024 1024-1024z" fill="#1D5B79"/><g clip-path="url(#A)" fill="#468B97"><path d="M1308.38 487.681L2444.26 1623.56l.52 8.9.56 8.9.6 8.9.65 8.91.7 8.92.74 8.92.79 8.93.84 8.94.88 8.94.94 8.95.98 8.96 1.03 8.96 1.09 8.97 1.13 8.98 1.18 8.98 1.24 8.99 1.29 9 1.34 9 1.39 9.01 1.45 9.02 1.5 9.03 1.56 9.03 1.6 9.04 1.67 9.05 1.72 9.05 1.78 9.07 1.83 9.07 1.9 9.08 1.95 9.08 2 9.1 2.07 9.1 2.13 9.11L1349.43 775.566l-2.13-9.11-2.07-9.103-2-9.093-1.95-9.087-1.9-9.079-1.83-9.071-1.78-9.062-1.72-9.056-1.67-9.048-1.61-9.04-1.55-9.033-1.5-9.026-1.45-9.019-1.39-9.011-1.34-9.005-1.29-8.996-1.24-8.991-1.18-8.983-1.14-8.977-1.08-8.969-1.03-8.962-.98-8.956-.94-8.95-.88-8.943-.84-8.936-.79-8.93-.74-8.924-.7-8.917-.65-8.911-.6-8.905-.56-8.899z"/><path d="M1349.43 775.566L2485.31 1911.45l2.13 8.9 2.19 8.91 2.25 8.92 2.31 8.92 2.36 8.94 2.43 8.95 2.49 8.95 2.54 8.97 2.61 8.97 2.67 8.98 2.73 9 2.79 9 2.86 9.01 2.91 9.02 2.99 9.03 3.04 9.04 3.11 9.06 3.18 9.06 3.24 9.07 3.3 9.08 3.37 9.09 3.44 9.11 3.51 9.11 3.57 9.12 3.65 9.13 3.71 9.15 3.78 9.15 3.84 9.17 3.92 9.17 3.99 9.19 4.06 9.2 4.13 9.21-1135.88-1135.88-4.13-9.21-4.06-9.2-3.99-9.19-3.92-9.17-3.85-9.17-3.77-9.15-3.72-9.15-3.64-9.132-3.57-9.123-3.51-9.112-3.44-9.102-3.37-9.093-3.31-9.081-3.24-9.071-3.17-9.063-3.11-9.05-3.05-9.042-2.98-9.032-2.92-9.022-2.85-9.012-2.79-9.002-2.73-8.993-2.67-8.984-2.61-8.973-2.54-8.964-2.49-8.955-2.43-8.946-2.36-8.937-2.31-8.927-2.25-8.919-2.19-8.909z"/><path d="M1448.53 1065.15l1135.88 1135.88 4 8.77-1135.88-1135.88z"/><path d="M1452.57 1073.9l1135.88 1135.88.89 2.19.68 2.25.48 2.29.28 2.3.09 2.3-.1 2.29-.29 2.26-.47 2.21-.65 2.15-.82 2.07-.99 1.98-1.16 1.86-1.32 1.74-1.47 1.59-1.63 1.44-1.77 1.26-1135.89-1135.89 1.78-1.26 1.63-1.43 1.47-1.59 1.32-1.74 1.16-1.87.99-1.97.82-2.07.65-2.15.47-2.22.29-2.25.1-2.29-.09-2.31-.28-2.3-.48-2.28-.68-2.25z"/><path d="M1444.31 1106.07L2580.2 2241.96l-1.19.69-1.21.59-1.22.49-1.24.4-1.24.31-1.25.21-1.25.11-1.25.03-1135.88-1135.88 1.24-.03 1.26-.11 1.25-.21 1.24-.31 1.24-.4 1.22-.49 1.21-.6zM681.508 486.274L1817.39 1622.16l-.04-.03L681.471 486.244zm499.112 622.636L2316.5 2244.79h-146.19L1034.43 1108.91zm-225.241 0L2091.26 2244.79h-400.28L555.103 1108.91z"/><path d="M1034.43 1108.91l1135.88 1135.88 14.52 336.79-1135.88-1135.89z"/><path d="M1187.91 1108.91l1135.88 1135.88v202.26L1187.91 1311.17zm32.17 365.16l1135.88 1135.88 1.21 1.3 1.12 1.38 1.01 1.47.89 1.55.78 1.62.66 1.69-1135.88-1135.89-.66-1.68-.78-1.62-.89-1.55-1.01-1.47-1.12-1.39z"/><path d="M1225.75 1483.07l1135.88 1135.89 10.3 24.73-1135.88-1135.88zm283.29 71.93l1135.88 1135.88.79.79.71.84.63.88.55.92.47.95.37.97.29.99.2.99.1.99.02.99-.09.97-.18.95-.28.91-.38.88-.48.84-1135.89-1135.88.49-.84.38-.88.28-.92.18-.94.08-.97-.01-.99-.1-.99-.2-.99-.29-.99-.38-.97-.46-.95-.55-.92-.63-.88-.71-.84zm-316.5-240.51l1135.89 1135.89 1.1 1.17 1.08 1.29 1.06 1.4 1.03 1.51 1.01 1.59.97 1.69.95 1.75.91 1.82.88 1.88.85 1.93.82 1.97.77 2 .74 2.02.7 2.04.67 2.04.62 2.03.57 2.03.54 2 .49 1.97.44 1.93.4 1.88.35 1.83.29 1.76.25 1.69.19 1.6.14 1.51.09 1.41.03 1.3-.14 2.48-.4 2.04-.64 1.64-.88 1.27-1.11.95-1.31.67-1.51.41-1.69.21-1.87.04-2.01-.09-2.17-.18-2.29-.24-2.4-.25-2.52-.23-2.6-.17-2.68-.06-2.68.06-2.6.17-2.52.23-2.41.25-2.29.24-2.16.18-2.02.09-1.86-.04-1.69-.21-1.51-.41-1.31-.67-1.11-.95-1135.88-1135.88 1.11.95 1.31.66 1.51.42 1.69.21 1.86.04 2.02-.09 2.16-.19 2.29-.23 2.41-.26 2.51-.22 2.61-.17 2.68-.06 2.68.06 2.6.17 2.51.22 2.41.26 2.29.23 2.17.19 2.01.09 1.87-.04 1.69-.21 1.51-.42 1.31-.66 1.1-.95.89-1.27.64-1.64.4-2.04.13-2.48-.02-1.3-.09-1.41-.14-1.51-.19-1.61-.25-1.68-.3-1.76-.34-1.83-.4-1.88-.44-1.93-.49-1.97-.54-2.01-.57-2.02-.63-2.03-.66-2.05-.7-2.03-.74-2.02-.78-2-.81-1.97-.85-1.93-.88-1.88-.91-1.82-.95-1.76-.98-1.68-1-1.59-1.03-1.51-1.06-1.4-1.08-1.29z"/><path d="M1425.5 1557.12L2561.38 2693l-2.96-1.86-2.9-1.82-2.83-1.77-2.76-1.69-2.67-1.62-2.57-1.51-2.44-1.39-2.32-1.27-2.17-1.12-2.01-.96-1.84-.78-1.65-.59-1.46-.38-1.24-.16-1.02.08-.77.33-1135.88-1135.88.77-.33 1.02-.08 1.24.16 1.46.38 1.65.59 1.84.78 2.01.96 2.17 1.12 2.31 1.26 2.45 1.4 2.56 1.51 2.67 1.61 2.76 1.7 2.84 1.77 2.9 1.82z"/><path d="M1391.89 1540.61l1135.88 1135.88-4.27 2.93-4.13 2.63-4 2.33-3.87 2.04-3.74 1.77-3.62 1.51-3.51 1.25-3.4 1-3.28.77-3.19.54-3.08.33-2.99.12-2.9-.07-2.82-.26-2.73-.43-2.66-.6-2.58-.75-2.51-.9-2.46-1.04-2.38-1.16-2.34-1.28-2.28-1.38-2.24-1.48-2.19-1.56-2.15-1.64-2.12-1.71-2.09-1.76-2.07-1.81-2.04-1.84-2.03-1.87-2.01-1.89-2.01-1.89L1302.2 1532.51l2.01 1.89 2.01 1.89 2.03 1.87 2.04 1.84 2.06 1.81 2.1 1.76 2.12 1.71 2.15 1.64 2.19 1.56 2.24 1.48 2.28 1.38 2.33 1.28 2.39 1.16 2.45 1.04 2.52.9 2.58.75 2.66.6 2.73.43 2.81.26 2.91.07 2.99-.12 3.08-.33 3.19-.54 3.28-.77 3.4-1.01 3.51-1.25 3.62-1.5 3.74-1.77 3.87-2.05 4-2.32 4.13-2.63z"/><path d="M1302.2 1532.51l1135.88 1135.88-1.32-1.25-1.32-1.23-1.32-1.22-1.33-1.2-1.34-1.17-1.35-1.14-1.37-1.09-1.38-1.05-1.41-1-1.43-.93-1.46-.87-1.49-.79-1.52-.72-1.56-.62-1.6-.54-1.64-.44-1.69-.33-1.73-.22-1.79-.1-1.84.02-1.9.15-1.96.29-2.03.44-2.09.58-2.16.75-2.23.9-2.3 1.07-2.39 1.25-2.47 1.44-2.55 1.62-2.64 1.82-2.73 2.01-1135.88-1135.88 2.73-2.02 2.64-1.81 2.55-1.62 2.47-1.44 2.38-1.25 2.31-1.07 2.23-.91 2.16-.74 2.09-.58 2.03-.44 1.96-.29 1.9-.15 1.84-.02 1.78.1 1.74.22 1.69.33 1.64.44 1.6.53 1.56.63 1.52.72 1.49.79 1.46.87 1.43.93 1.41 1 1.38 1.04 1.37 1.1 1.35 1.14 1.34 1.17 1.33 1.19 1.32 1.23 1.32 1.23z"/><path d="M1244.86 1528.94l1135.88 1135.88 9.48 22.77-1135.88-1135.88z"/><path d="M1254.38 1551.69l1135.88 1135.88.81 2.25.56 2.27.33 2.29.1 2.28-.12 2.26-.34 2.23-.55 2.17-.75 2.11-.95 2.03-1.15 1.93-1.32 1.82-1.51 1.69-1.67 1.55-1.85 1.39-2 1.22-2.15 1.02L1241.81 1582.2l2.16-1.03 2-1.21 1.85-1.39 1.67-1.55 1.51-1.7 1.32-1.81 1.14-1.93.96-2.03.75-2.11.55-2.18.34-2.22.12-2.26-.1-2.28-.33-2.29-.56-2.27z"/><path d="M1241.81 1582.2L2377.7 2718.08l-1.16.45-1.16.38-1.17.32-1.18.25-1.18.19-1.18.13-1.17.07-1.18.01L1232.44 1584l1.18-.01 1.17-.07 1.18-.13 1.18-.19 1.17-.25 1.17-.32 1.17-.38zm-686.707-473.29L1690.98 2244.79l-2.07-.12-2.01-.36-1.95-.59-1.86-.8-1.77-1-1.67-1.19-1.56-1.36L542.207 1103.48l1.56 1.37 1.672 1.19 1.772 1 1.863.8 1.944.59 2.012.36zM756.967 1584L1892.85 2719.88l-2.39-.12-2.32-.35-2.23-.58-2.14-.79-2.04-.98-1.93-1.17-1.8-1.34L742.124 1578.67l1.796 1.34 1.924 1.17 2.04.98 2.144.79 2.236.57 2.317.36zm754.783-15.14l1135.89 1135.88-1.91 2.67-2 2.37-2.08 2.08-2.16 1.81-2.24 1.54-2.31 1.29-2.37 1.03-2.45.81-2.5.57-2.56.36-2.62.16-2.67-.05-2.72-.22-2.75-.41-2.8-.56-2.84-.73-2.86-.87-2.9-1-2.92-1.13-2.94-1.24-2.96-1.35-2.98-1.45-2.98-1.53-3-1.6-2.99-1.66-3-1.73-2.99-1.76-2.98-1.8-2.97-1.83-2.96-1.83-2.94-1.85-2.91-1.83L1425.5 1557.12l2.91 1.83 2.94 1.84 2.96 1.84 2.97 1.83 2.98 1.8 2.99 1.76 3 1.72 2.99 1.67 2.99 1.6 2.99 1.53 2.97 1.44 2.97 1.35 2.94 1.25 2.92 1.13 2.89 1 2.87.87 2.84.72 2.79.57 2.76.4 2.72.23 2.67.04 2.61-.15 2.57-.36 2.5-.58 2.44-.8 2.38-1.04 2.31-1.28 2.24-1.54 2.16-1.81 2.08-2.08 1.99-2.37z"/><path d="M1232.44 1584l1135.88 1135.88h-475.47L756.967 1584zm202.03-475.09l1135.88 1135.88h-246.56L1187.91 1108.91zm-132.05-637.976L2438.3 1606.82l1.31 1.68 1.17 1.82 1.02 1.95.85 2.07.69 2.18.5 2.27.31 2.35.11 2.42L1308.38 487.681l-.11-2.422-.31-2.352-.5-2.27-.69-2.177-.85-2.069-1.02-1.952-1.17-1.824z"/><path d="M1308.38 487.681c5.249 94.825 18.046 190.668 41.043 287.884 22.449 94.891 54.659 191.294 99.106 289.581l3.996 8.772.038-.022c5.304 11.555 1.61 25.962-8.251 32.178-3.138 1.977-6.522 2.884-9.849 2.836h-246.552v202.262c12.754 5.628 22.571 39.122 22.571 52.364 0 14.479-11.738 8.492-26.217 8.492s-26.216 5.987-26.216-8.492c0-13.241 9.816-46.736 22.57-52.364v-202.262H1034.43l14.518 336.783c51.763 2.949 103.337 10.18 154.723 21.635 10.231 0 18.922 6.585 22.071 15.746l10.305 24.731c38.496-27.087 58.198-8.472 78.504 10.716 14.804 13.988 30.08 28.42 63.781 4.455 13.365-9.504 33.335 3.073 55.53 17.055 23.223 14.629 49.767 31.349 60.352 15.347 2.861-4.333 9.107-4.83 13.949-1.108s6.449 10.254 3.588 14.588c-19.889 30.066-55.286 7.767-86.258-11.744-15.859-9.99-30.129-18.979-33.61-16.505-46.277 32.91-68.322 12.083-89.686-8.105-14.078-13.302-27.724-26.195-57.344-3.565l9.484 22.763.038-.017a23.34 23.34 0 0 1-12.565 30.514 23.26 23.26 0 0 1-9.373 1.794H756.964c-12.887 0-23.334-10.447-23.334-23.334 0-3.699.862-7.196 2.395-10.304l28.593-68.629-.028-.041c3.802-9.124 12.726-14.561 22.048-14.36 51.593-11.415 102.998-18.585 154.217-21.565l14.522-336.854H555.1c-11.197 0-20.276-10.638-20.276-23.759 0-4.61 1.121-8.914 3.061-12.555l3.39-7.448c44.447-98.287 76.661-194.69 99.109-289.582 23.111-97.697 35.922-194.007 41.121-289.291l-.038-.031c.686-12.586 9.619-22.253 20.236-22.243h293.199 293.201c11.176 0 20.241 10.594 20.276 23.68z"/></g><path d="M1225.12 1516.32c-3.918 3.331-3.829 9.79.2 14.424s10.47 5.691 14.387 2.359c33.235-28.237 47.623-14.643 62.492-.594 21.364 20.186 43.409 41.015 89.686 8.105 3.481-2.474 17.751 6.515 33.61 16.505 30.972 19.511 66.371 41.81 86.258 11.744 2.861-4.333 1.254-10.865-3.587-14.588s-11.089-3.226-13.95 1.108c-10.585 16.002-37.129-.719-60.352-15.347-22.194-13.982-42.165-26.561-55.53-17.055-33.7 23.965-48.977 9.533-63.781-4.455-22.143-20.924-43.571-41.17-89.433-2.204zm-37.21-431.09a3.65 3.65 0 0 0-3.646-3.647 3.65 3.65 0 0 0-3.646 3.647v242.447a3.65 3.65 0 0 0 3.646 3.646 3.65 3.65 0 0 0 3.646-3.646V1085.23z" fill="#263238" fill-rule="nonzero"/><path d="M1184.27 1310.36c14.479 0 26.217 38.693 26.217 53.172s-11.738 8.492-26.217 8.492-26.216 5.986-26.216-8.492 11.737-53.172 26.216-53.172z" fill="#87776a"/><path d="M1028.88 980.075c0-16.382-15.211-29.663-33.974-29.663s-33.973 13.282-33.973 29.663l-20.949 485.967c0 26.483 24.591 47.954 54.923 47.954s54.922-21.471 54.922-47.954l-20.948-485.967z" fill="#4c636e" fill-rule="nonzero"/><path d="M701.706 464.001h293.199 293.201c11.176 0 20.241 10.596 20.276 23.68 5.249 94.825 18.046 190.669 41.043 287.884 23.117 97.713 56.583 197.027 103.102 298.353l.038-.022c5.304 11.555 1.61 25.962-8.251 32.178-3.138 1.976-6.522 2.884-9.849 2.835H994.906 555.103c-11.197 0-20.276-10.637-20.276-23.758 0-4.61 1.121-8.913 3.061-12.555 46.204-100.866 79.484-199.742 102.499-297.03 23.111-97.697 35.922-194.007 41.121-289.291l-.038-.031c.686-12.586 9.619-22.253 20.236-22.243z" fill="#EF6262"/><path d="M1448.53 1065.15l3.996 8.772.038-.022c5.304 11.555 1.61 25.962-8.251 32.178-3.138 1.977-6.522 2.884-9.849 2.836H994.904 555.101c-11.197 0-20.276-10.638-20.276-23.759 0-4.61 1.121-8.914 3.061-12.555l3.389-7.449h907.255z" fill="#87776a"/><path d="M786.641 1467.33c140.391-31.063 279.383-30.685 417.033 0 10.231 0 18.922 6.585 22.071 15.746l28.596 68.63.038-.017a23.34 23.34 0 0 1-12.565 30.514 23.26 23.26 0 0 1-9.373 1.794H756.967c-12.887 0-23.334-10.447-23.334-23.334 0-3.699.862-7.196 2.395-10.304l28.593-68.629-.028-.041c3.802-9.124 12.726-14.561 22.048-14.36z" fill="#3e515a" fill-rule="nonzero"/><g fill="#ebd5a4"><path d="M727.855 542.558c6.719 7.88 19.13 7.965 27.715.142 8.52-7.822 9.582-20.557 2.315-28.466-7.395-7.909-19.773-7.965-27.683-.143-8.07 7.795-9.066 20.557-2.347 28.467zm174.199 7.051s22.7-7.68 32.505 9.137c6.624 11.735-2.797 22.785-10.802 24.755-7.813 1.885-13.568-6.224-9.324-12.392.032 0 .096 0 .159-.028a3.65 3.65 0 0 1 .483-.713c2.7-3.769 7.652-5.024 10.964-2.798.547.343 1.029.771 1.447 1.257.193-.743 1.832-6.853-2.315-11.193-10.869-11.163-23.118-8.023-23.118-8.023zm-.226-40c2.412-2.256 6.077-4.025 11.382-2.826 11.735 2.598 14.114 15.618 11.125 22.328-2.957 6.71-15.465 16.874-27.168 11.849-12.185-5.197-16.302-15.018-22.957-22.956 2.412 7.167-.354 15.647-3.472 20.13-3.569 4.939-12.154 9.536-19.933 7.681 4.662 3.283 8.198 8.65 9.613 16.216 2.862 15.817-12.217 37.603-33.696 41.658-21.51 4.054-34.016-11.591-40.061-47.995-8.424-36.404-32.57-47.91-32.57-47.91 35.528.086 44.692 20.357 49.417 43.199 3.729 22.87 13.632 34.69 22.731 35.433 12.571 1.028 22.313-15.361 11.928-22.299-3.889-2.598-9.387-.456-12.249 2.085-4.051 3.568-5.402 10.107-5.402 10.107-16.59-8.994-6.077-27.409 8.778-32.749 5.369-1.913 10.804-2.171 15.658-.628-.386-.314-.771-.657-1.093-1.028-4.019-3.912-4.534-8.194-3.892-11.735.033-.771.13-1.541.354-2.313 1.512-5.995 7.395-9.964 13.182-8.85 5.209.998 8.52 5.824 7.942 11.191 1.833-1.37 3.504-3.654 3.601-7.137.129-3.654-3.633-12.991-18.938-12.963-10.063.057-26.493 7.795-26.493 7.795 7.363-5.91 20.095-11.963 32.346-12.021 5.241-.77 24.274-2.456 33.213 11.393 8.745 14.561 17.297 17.787 24.145 15.132 3.247-1.257 4.115-4.111 4.051-6.51-4.019 3.283-9.678 3.255-13.182-.256-3.857-3.826-3.826-10.364.032-14.562.515-.57 1.029-1.057 1.607-1.456zm-20.223 26.324s1.768 4.226 2.412 16.332c.289 12.134 5.144 21.956 24.981 20.642 0 0-6.013-6.966-7.106-15.076-1.157-8.137-2.7-15.616-18.712-21.498 0 0 12.54 7.68 11.929 21.757 0 0 .193-13.192-13.505-22.158zm-4.309-6.11s-.257 4.768-7.587 14.19c-7.395 9.423-11.767 19.902.226 32.093 0 0 1.157-9.365 5.787-16.274 4.63-6.881 8.456-13.505 2.604-28.524 0 0 3.439 11.764-6.624 24.213 0 0 9.356-13.819 5.594-25.697zm32.763 13.305s8.874-1.628 24.854-17.187c15.369-15.561 33.502-25.069 59.995-3.17 0 0-17.265 2.913-29.098 12.449-12.089 9.536-23.824 17.93-52.761 9.536 0 0 22.442 4.283 43.759-16.818 0 0-23.986 19.987-46.749 15.19zm-131.95-35.118s14.211-.229 18.938 9.907c4.244 10.135 8.937 26.467 27.039 26.182 0 0-2.797-6.053-2.926-13.591-.226-7.537-4.695-24.097-35.656-22.898 0 0 20.803-.999 26.846 20.386 0 0-8.037-20.9-34.241-19.985zm110.473 62.528c2.154 2.741 1.383 7.139-1.736 9.822s-7.395 2.655-9.549-.057-1.382-7.109 1.704-9.822c3.054-2.683 7.331-2.655 9.581.057zM732.517 693.996s-11.639 22.298 2.765 34.718c10.193 8.68 22.057 1.056 25.175-6.796 3.086-7.68-3.441-15.161-10.063-11.905-.033.058-.033.115-.033.172-.256.085-.514.228-.739.343-4.083 2.198-6.141 7.023-4.598 10.85.257.599.611 1.142.997 1.626-.739.115-6.816.829-10.224-4.14-8.681-12.762-3.28-24.868-3.28-24.868zm-38.164-3.883c-2.668 2.399-5.177 6.082-5.048 11.591.354 12.163 12.443 15.305 19.388 12.821 7.009-2.456 18.968-14.02 16.654-26.697-2.315-13.162-10.802-18.215-16.911-25.754 6.301 3.084 15.047 1 19.998-1.741 5.466-3.054 11.799-11.249 11.799-19.501 2.059 5.196 6.302 9.565 13.087 12.249 14.147 5.653 37.842-5.539 46.524-26.782 8.489-21.215-3.472-37.375-36.558-50.052-33.341-12.648-41.058-37.974-41.058-37.974-5.209 36.517 12.508 47.167 33.374 54.619 20.705 7.481 29.643 19.872 28.293 29.38-1.897 13.134-19.42 20.073-23.568 8.223-1.511-4.396 1.736-9.679 4.759-12.22 4.244-3.569 10.642-3.798 10.642-3.798-4.887-18.615-24.435-10.592-32.699 3.941-3.021 5.282-4.5 10.85-4.179 16.045-.194-.428-.45-.856-.676-1.284-2.797-4.626-6.784-5.596-10.289-5.255-.739-.028-1.511 0-2.283.143-6.107 1.057-11.189 6.767-11.446 12.791-.256 5.425 3.602 9.25 8.842 9.137-1.704 1.77-4.309 3.255-7.651 3.084-3.537-.172-11.64-4.455-8.102-20.186 2.347-10.364 13.471-26.896 13.471-26.896-7.33 7.309-16.01 20.215-18.872 32.749-1.994 5.368-7.942 24.868 3.441 34.548 12.024 10.221 13.31 19.244 9.354 26.068-1.767 3.226-4.661 3.854-6.976 3.596 3.922-3.854 5.047-9.679 2.411-13.563-2.862-4.282-9.13-4.652-13.985-.883-.611.484-1.221 1.026-1.736 1.598zm29.58-18.901s3.601 2.342 14.95 4.569c11.285 2.198 19.484 8.851 14.275 28.981 0 0-5.465-7.368-12.892-9.737-7.396-2.398-14.179-4.968-16.333-22.156 0 0 4.565 13.876 18.037 15.217 0 0-12.507-1.684-18.037-16.873zm-4.887-4.968s4.63.142 15.176-6.224c10.578-6.367 21.413-9.222 30.126 5.196 0 0-9.034-.428-16.558 3.227-7.492 3.656-14.597 6.767-27.555-.999 0 0 10.385 4.826 24.404-3.855 0 0-15.111 7.795-25.593 2.656zm5.722 35.118s-3.215 8.881-20.833 23.727c-17.265 14.848-28.487 33.092-8.777 61.3 0 0 3.472-17.445 13.728-28.722 10.449-11.279 19.967-22.242 16.88-53.05 0 0 .159 23.613-23.021 43.142 0 0 22.538-22.384 22.023-46.397zM719.078 563s-2.668 14.562 6.237 19.787 23.503 11.791 19.388 30.35c0 0-5.112-3.626-12.249-4.482-7.17-.885-22.217-6.367-14.952-38.117 0 0-4.95 21.357 14.373 28.838 0 0-18.424-9.536-12.797-36.376zm35.979 120.346c2.089 2.713 6.366 2.741 9.517.057 3.215-2.712 4.115-7.109 2.026-9.821-2.059-2.713-6.334-2.741-9.517-.058-3.215 2.685-4.148 7.081-2.026 9.822zm51.057-59.616c2.957 3.94 9.131 3.969 13.761.085 4.662-3.882 5.98-10.25 2.989-14.161-2.989-3.939-9.163-3.997-13.76-.085-4.63 3.882-5.98 10.221-2.991 14.161z"/><path d="M1261.96 542.558c-6.72 7.88-19.13 7.965-27.715.142-8.522-7.822-9.582-20.557-2.315-28.466 7.394-7.909 19.773-7.965 27.681-.143 8.07 7.795 9.067 20.557 2.348 28.467zm-174.199 7.051s-22.7-7.68-32.506 9.137c-6.624 11.735 2.798 22.785 10.804 24.755 7.813 1.885 13.567-6.224 9.324-12.392-.032 0-.097 0-.161-.028-.129-.256-.289-.484-.482-.713-2.701-3.769-7.652-5.024-10.964-2.798-.547.343-1.029.771-1.447 1.257-.193-.743-1.833-6.853 2.315-11.193 10.867-11.163 23.118-8.023 23.118-8.023zm.224-40c-2.411-2.256-6.077-4.025-11.381-2.826-11.737 2.598-14.115 15.618-11.125 22.328 2.957 6.71 15.465 16.874 27.168 11.849 12.185-5.197 16.302-15.018 22.957-22.956-2.412 7.167.353 15.647 3.472 20.13 3.568 4.939 12.154 9.536 19.934 7.681-4.662 3.283-8.199 8.65-9.613 16.216-2.862 15.817 12.217 37.603 33.696 41.658 21.509 4.054 34.016-11.591 40.061-47.995 8.424-36.404 32.57-47.91 32.57-47.91-35.529.086-44.692 20.357-49.418 43.199-3.729 22.87-13.631 34.69-22.73 35.433-12.572 1.028-22.313-15.361-11.929-22.299 3.891-2.598 9.389-.456 12.25 2.085 4.051 3.568 5.401 10.107 5.401 10.107 16.591-8.994 6.077-27.409-8.777-32.749-5.37-1.913-10.804-2.171-15.658-.628.385-.314.771-.657 1.093-1.028 4.019-3.912 4.533-8.194 3.891-11.735-.032-.771-.129-1.541-.353-2.313-1.512-5.995-7.396-9.964-13.184-8.85-5.209.998-8.519 5.824-7.941 11.191-1.833-1.37-3.504-3.654-3.601-7.137-.129-3.654 3.633-12.991 18.938-12.963 10.063.057 26.492 7.795 26.492 7.795-7.362-5.91-20.094-11.963-32.344-12.021-5.241-.77-24.274-2.456-33.213 11.393-8.745 14.561-17.298 17.787-24.147 15.132-3.247-1.257-4.115-4.111-4.051-6.51 4.019 3.283 9.679 3.255 13.182-.256 3.859-3.826 3.826-10.364-.031-14.562-.516-.57-1.03-1.057-1.609-1.456zm20.223 26.324s-1.768 4.226-2.411 16.332c-.289 12.134-5.145 21.956-24.982 20.642 0 0 6.012-6.966 7.104-15.076 1.157-8.137 2.701-15.616 18.713-21.498 0 0-12.54 7.68-11.929 21.757 0 0-.193-13.192 13.504-22.158zm4.309-6.11s.257 4.768 7.589 14.19c7.395 9.423 11.767 19.902-.226 32.093 0 0-1.157-9.365-5.787-16.274-4.63-6.881-8.456-13.505-2.604-28.524 0 0-3.439 11.764 6.624 24.213 0 0-9.357-13.819-5.595-25.697zm-32.761 13.305s-8.875-1.628-24.854-17.187c-15.369-15.561-33.503-25.069-59.995-3.17 0 0 17.265 2.913 29.097 12.449 12.09 9.536 23.825 17.93 52.762 9.536 0 0-22.442 4.283-43.76-16.818 0 0 23.986 19.987 46.75 15.19zm131.95-35.118s-14.211-.229-18.938 9.907c-4.244 10.135-8.937 26.467-27.039 26.182 0 0 2.797-6.053 2.926-13.591.226-7.537 4.694-24.097 35.656-22.898 0 0-20.803-.999-26.847 20.386 0 0 8.037-20.9 34.241-19.985zm-110.474 62.528c-2.153 2.741-1.382 7.139 1.736 9.822s7.396 2.655 9.549-.057 1.383-7.109-1.704-9.822c-3.053-2.683-7.33-2.655-9.581.057zm156.065 123.458s11.64 22.298-2.764 34.718c-10.193 8.68-22.057 1.056-25.175-6.796-3.087-7.68 3.441-15.161 10.063-11.905.033.058.033.115.033.172.256.085.514.228.738.343 4.084 2.198 6.142 7.023 4.598 10.85a7.22 7.22 0 0 1-.996 1.626c.738.115 6.815.829 10.224-4.14 8.681-12.762 3.279-24.868 3.279-24.868zm38.165-3.883c2.668 2.399 5.176 6.082 5.048 11.591-.354 12.163-12.443 15.305-19.388 12.821-7.009-2.456-18.97-14.02-16.655-26.697 2.315-13.162 10.804-18.215 16.912-25.754-6.301 3.084-15.047 1-19.998-1.741-5.466-3.054-11.799-11.249-11.799-19.501-2.059 5.196-6.302 9.565-13.087 12.249-14.147 5.653-37.842-5.539-46.524-26.782-8.489-21.215 3.472-37.375 36.556-50.052 33.341-12.648 41.059-37.974 41.059-37.974 5.209 36.517-12.508 47.167-33.374 54.619-20.706 7.481-29.645 19.872-28.293 29.38 1.897 13.134 19.42 20.073 23.567 8.223 1.512-4.396-1.736-9.679-4.757-12.22-4.245-3.569-10.643-3.798-10.643-3.798 4.887-18.615 24.436-10.592 32.699 3.941 3.022 5.282 4.501 10.85 4.18 16.045.193-.428.45-.856.676-1.284 2.797-4.626 6.783-5.596 10.287-5.255.741-.028 1.512 0 2.283.143 6.109 1.057 11.19 6.767 11.447 12.791.256 5.425-3.602 9.25-8.843 9.137 1.704 1.77 4.309 3.255 7.652 3.084 3.536-.172 11.639-4.455 8.102-20.186-2.347-10.364-13.472-26.896-13.472-26.896 7.331 7.309 16.011 20.215 18.873 32.749 1.994 5.368 7.942 24.868-3.441 34.548-12.024 10.221-13.31 19.244-9.356 26.068 1.768 3.226 4.662 3.854 6.977 3.596-3.922-3.854-5.047-9.679-2.412-13.563 2.863-4.282 9.131-4.652 13.987-.883.611.484 1.221 1.026 1.736 1.598zm-29.58-18.901s-3.601 2.342-14.95 4.569c-11.285 2.198-19.485 8.851-14.276 28.981 0 0 5.466-7.368 12.893-9.737 7.395-2.398 14.179-4.968 16.333-22.156 0 0-4.566 13.876-18.037 15.217 0 0 12.507-1.684 18.037-16.873zm4.887-4.968s-4.63.142-15.176-6.224c-10.578-6.367-21.413-9.222-30.126 5.196 0 0 9.034-.428 16.558 3.227 7.492 3.656 14.597 6.767 27.555-.999 0 0-10.385 4.826-24.404-3.855 0 0 15.111 7.795 25.593 2.656zm-5.724 35.118s3.215 8.881 20.833 23.727c17.266 14.848 28.488 33.092 8.778 61.3 0 0-3.472-17.445-13.729-28.722-10.448-11.279-19.965-22.242-16.879-53.05 0 0-.161 23.613 23.021 43.142 0 0-22.539-22.384-22.024-46.397zM1270.737 563s2.667 14.562-6.239 19.787-23.503 11.791-19.388 30.35c0 0 5.113-3.626 12.25-4.482 7.169-.885 22.217-6.367 14.95-38.117 0 0 4.951 21.357-14.372 28.838 0 0 18.423-9.536 12.797-36.376zm-35.979 120.346c-2.091 2.713-6.366 2.741-9.517.057-3.215-2.712-4.115-7.109-2.026-9.821 2.059-2.713 6.334-2.741 9.517-.058 3.215 2.685 4.148 7.081 2.026 9.822zm-51.058-59.616c-2.956 3.94-9.13 3.969-13.76.085-4.663-3.882-5.98-10.25-2.991-14.161 2.991-3.939 9.164-3.997 13.761-.085 4.63 3.882 5.98 10.221 2.989 14.161z"/></g><g fill="#87776a"><path d="M1018.08 858.003c0-12.793-10.371-23.163-23.165-23.163s-23.165 10.371-23.165 23.163a23.17 23.17 0 0 0 23.165 23.167 23.17 23.17 0 0 0 23.165-23.167zm40.85-46.328c0-12.796-10.372-23.165-23.167-23.165s-23.165 10.369-23.165 23.165a23.17 23.17 0 0 0 23.165 23.165c12.795 0 23.166-10.372 23.167-23.165zm37.79 190.805c0-15.821-12.827-28.649-28.649-28.649s-28.652 12.828-28.652 28.649 12.827 28.651 28.652 28.651 28.649-12.828 28.649-28.651zm112.17-172.519a17.07 17.07 0 0 0-17.067-17.067 17.07 17.07 0 0 0-17.068 17.068 17.07 17.07 0 0 0 17.068 17.068c9.425-.001 17.067-7.642 17.067-17.069zm45.11 64.548c0-9.426-7.643-17.068-17.068-17.068s-17.068 7.642-17.068 17.068 7.642 17.069 17.068 17.069S1254 903.937 1254 894.509zm-38.08 43.824c0-4.232-3.429-7.664-7.661-7.664s-7.664 3.432-7.664 7.664 3.43 7.662 7.664 7.662a7.66 7.66 0 0 0 7.661-7.662zm-199.67 96.387a6.71 6.71 0 0 0-6.705-6.706c-3.705 0-6.704 3.004-6.704 6.706s2.999 6.705 6.704 6.705 6.705-3.002 6.705-6.705zm190.2-134.689c0-6.06-4.912-10.972-10.971-10.972s-10.974 4.912-10.974 10.972 4.912 10.972 10.974 10.972 10.971-4.913 10.971-10.972zm140.82 108.479a18.9 18.9 0 0 0-18.895-18.898c-10.436 0-18.899 8.461-18.899 18.898s8.461 18.898 18.899 18.898a18.9 18.9 0 0 0 18.895-18.898z"/><path d="M1040.03 915.845s65.741-27.549 58.051-91.057c-6.459-53.328-47.336-60.352-71.463-52.2-29.294 9.898-28.338 59.713 7.629 62.152l2.126-15.822 12.801-25.603s31.702 3.047 33.53 48.158-36.579 68.884-42.674 74.372zm-2.7.655s20.66-17.343 26.627-29.387c10.65-21.498 2.76-44.969-31.162-41.222 0 0 29.387 18.54 2.563 70.806.001 0 35.107-37.867 16.766-61.142 0 0 22.089 17.555-14.793 60.945zm-23.06 27.138s13.257-17.415 15.833-28.018c4.592-18.919-5.844-36.09-32.032-27.068 0 0 26.574 9.43 14.672 55.596 0-.001 21.032-36.245 2.356-51.396 0 0 20.62 9.952-.829 50.887zm59.16-46.468s-65.761 42.617-70.214 83.627c-4.733 43.587 24.9 70.912 64.298 64.691 26.23-4.142 35.698-26.231 33.528-41.419-1.698-11.876-14.199-32.345-35.896-28.006l-23.666 35.895s-18.501-12.572-15.781-37.866c3.945-36.685 47.731-76.922 47.731-76.922z"/><path d="M1005.77 1010.38s-11.601 9.452-10.846 24.061c.64 12.425 10.257 14.646 15.974 12.821 4.285-1.367 9.27-8.285 4.339-15.778l-11.833 5.127s-4.437-.69-3.945-10.057c.47-8.92 6.311-16.174 6.311-16.174zm67.66 36.29s30.374-1.183 39.841-22.879 20.906-56.407 59.563-57.985c.001 0-6.706 13.017-7.495 28.795s-9.861 50.886-76.132 52.069c0 0 44.576-.396 57.198-45.757 0 0-16.962 44.574-72.976 45.757zm28.03-218.393s8.846-19.277-1.671-32.016-28.517-30.808-17.303-55.367c0 0 5.987 8.281 15.559 13.749s28.563 22.191 8.393 63.813c0 0 13.816-27.869-10.439-50.036 0 0 22.395 24.619 5.461 59.857zm37.45 144.631s3.943-5.525 3.943-21.697 6.313-30.373 32.74-33.135c0-.001-7.889 10.65-9.072 21.696s-2.763 21.301-23.668 32.74c0 0 16.174-13.017 14.597-31.557 0 0-3.156 22.089-18.54 31.952zm145.78-46.284s4.688-4.904 6.993-20.911 10.576-29.165 37.129-28.134c0 0-6.985 9.755-8.172 23.532-1.22 14.17-9.229 22.584-31.991 25.683.001 0 17.863-10.579 18.944-29.153 0 0-6.272 21.413-22.903 28.983zM989.502 794.998s1.873-10.622-9.2-33.814-11.745-47.881 24.265-69.936c0 0-.628 19.055 9.957 38.315 10.885 19.806 7.72 37.992-19.637 62.167 0 0 14.282-29.742-.676-55.249 0 0 10.6 33.839-4.709 58.515zm248.868 182.848s9.45-2.919 31.815 4.507 44.908 5.216 60.861-30.068c.001 0-18.351 6.021-34.173 2.587s-30.728-5.959-56.149 17.701c.001 0 25.429-16.394 50.347-5.699.001 0-32-5.776-52.702 10.972zm-17.76 9.685s8.714 5.753 17.643 28.983 25.837 40.14 65.317 29.515c0 0-17.21-10.941-25.01-26.152s-15.723-29.068-52.068-33.957c0 0 30.418 9.769 38.385 37.265 0 0-16.727-29.982-44.268-35.654zm-117.49-131.796s5.707-5.66 24.615-8.733 34.318-13.154 32.524-44.581c0 0-10.951 11.25-23.645 14.732s-24.379 7.276-33.785 33.896c.001-.001 12.149-21.386 34.124-23.062 0 0-25.228 7.885-33.834 27.748zm2.65 144.785s16.567-27.217 4.734-69.819-6.705-67.849 16.172-77.71 47.849 3.488 52.858 22.089c5.522 20.513-5.128 35.895-20.906 39.84-17.358 4.341-37.08-7.887-25.248-28.401.001 0 4.514 6.041 10.258 7.101 4.076.751 10.518-.62 13.018-5.917 6.706-14.2-10.65-25.245-22.485-15.777-8.558 6.846-12.622 26.034-4.733 52.462s11.042 52.463-23.668 76.132zm-29.58-52.464s33.198 3.325 28.958 46.006c3.628-8.473 12.202-33.783-5.293-51.924-21.3-22.09-53.645-3.944-58.774-.788 0 0 4.827 14.83 33.53 21.694 16.329 3.904 25.29 16.44 28.362 29.545 1.367-8.846 1.844-31.951-26.784-44.535z"/><path d="M1177.19 838.282s-8.706-18.032 9.045-28.286 35.899 2.367 40.237 13.411 4.338 34.713-16.963 41.813c-26.525 8.841-45.757-16.175-71.79-14.992 0 0 23.273-7.098 45.361 1.974 15.859 6.514 27.151-2.381 28.401-7.89 1.972-8.678-3.944-13.805-7.495-14.989s-26.796 8.959-26.796 8.959zm39.33 190.688c4.434 6.019 3.148 14.492-2.872 18.926a13.54 13.54 0 0 1-18.927-2.872c-4.434-6.02-3.149-14.493 2.871-18.926a13.54 13.54 0 0 1 18.928 2.872z"/><path d="M1192.37 1038.56s2.922 15.607 19.08 13.81 21.811-18.396 19.387-27.488-16.311-23.896-33.444-19.038c-30.895 8.761-31.578 38.838-70.051 38.838 0-.001 31.577 9.8 48.273-9.8 15.038-17.653 27.224-20.688 35.821-16.302 6.286 3.209 3.973 10.671 2.262 13.096s-21.326 6.885-21.326 6.883zm-1.52-32.35s30.49-42.104 55.897-58.074 80.723-35.075 114.928 10.866c30.176 40.532 12.129 83.132-14.387 90.403-22.916 6.28-49.356-7.195-46.043-35.122 2.092-17.635 19.25-26.667 31.559-24.142 11.819 2.425 9.402 28.41 6.498 30.588l-15.97 5.806s3.813 10.152 18.149 8.349c15.78-1.983 38.998-32.673 12.501-71.147s-80.91-26.277-102.657-12.723c-32.282 20.12-60.476 55.197-60.476 55.195z"/><path d="M1240.76 910.703s-16.871 4.977-25.532-12.053c-9.188-18.064-.394-41.833 20.314-46.568s38.56 5.151 46.546 27.043-4.733 47.336-24.259 60.649-38.754 30.769-46.152 40.532c0 0 21.005-26.035 36.685-38.459s33.136-44.081 20.709-61.832-31.064-15.682-35.797-.594l7.485 31.284zm-23.22 59.048s17.361-14.88 9.365-33.291c-5.59-12.875-18.594-11.835-24.059-6.243-5.35 5.478-2.207 15.606 4.552 15.866l8.194-9.754s6.123 2.233 7.414 8.842c3.123 15.996-5.466 24.58-5.466 24.58zm-136.43-55.346a7.66 7.66 0 0 0-10.619 2.153c-2.341 3.528-1.372 8.283 2.152 10.622 3.53 2.336 8.283 1.374 10.623-2.156a7.66 7.66 0 0 0-2.156-10.619z"/><path d="M1108.2 930.405s-2.816-22.688-22.579-26.193c-13.819-2.453-20.137 8.96-18.493 16.604 1.611 7.486 11.787 10.461 15.739 4.972l-3.606-12.22s5.248-3.87 11.468-1.294c15.059 6.233 17.47 18.132 17.47 18.131zm130.1-7.196c0-3.252-2.634-5.887-5.887-5.887s-5.884 2.635-5.884 5.887 2.635 5.884 5.884 5.884a5.89 5.89 0 0 0 5.887-5.884z"/><path d="M1239.55 947.339s13.332-11.429 7.191-25.57c-4.292-9.888-14.281-9.089-18.477-4.793-4.109 4.206-1.696 11.984 3.495 12.184l6.294-7.491s4.703 1.715 5.693 6.793c2.401 12.284-4.195 18.876-4.195 18.876zm107.41 33.539c-.13 3.249-2.867 5.778-6.116 5.647a5.89 5.89 0 0 1-5.646-6.118c.13-3.247 2.868-5.774 6.116-5.643s5.776 2.868 5.646 6.115z"/><path d="M1349.18 956.818s12.861 11.953 6.161 25.838c-4.687 9.707-14.633 8.507-18.657 4.05-3.935-4.37-1.214-12.045 3.98-12.037l5.991 7.739s4.766-1.527 5.96-6.56c2.89-12.179-3.435-19.03-3.435-19.03zm-205.3-185.066c3.28-6.759.457-14.895-6.302-18.174a13.6 13.6 0 0 0-18.172 6.305c-3.274 6.755-.456 14.893 6.301 18.17 6.764 3.278 14.895.457 18.174-6.301z"/><path d="M1122.15 823.177s39.241-10.316 40.733-45.909c1.044-24.885-20.526-33.295-33.585-28.596-12.783 4.603-15.611 23.205-5.02 28.857l20.642-9.229s8.044 8.308 4.987 19.864c-7.398 27.958-27.757 35.014-27.757 35.014zm69.44 134.584a9.71 9.71 0 0 0-9.707-9.706 9.71 9.71 0 0 0-9.706 9.706 9.71 9.71 0 0 0 9.706 9.709 9.71 9.71 0 0 0 9.707-9.709z"/><path d="M1193.65 997.561s21.989-18.848 11.862-42.173c-7.081-16.31-23.556-14.992-30.477-7.907-6.78 6.94-2.797 19.769 5.766 20.099l10.378-12.357s7.76 2.829 9.393 11.204c3.956 20.262-6.922 31.135-6.922 31.134zm-108.21-207.356s-39.599-.713-49.241-34.117c-6.745-23.36 11.768-36.32 25.236-34.885 13.188 1.41 20.167 18.403 11.429 26.209l-21.702-3.983s-5.715 9.742-.143 19.99c13.481 24.803 34.421 26.787 34.421 26.786zm-239.737-18.453a13.6 13.6 0 0 1 6.304-18.174c6.758-3.276 14.894-.456 18.171 6.305 3.275 6.755.456 14.893-6.301 18.17-6.763 3.278-14.896.457-18.174-6.301z"/><path d="M867.44 823.177s-39.241-10.316-40.734-45.909c-1.045-24.885 20.526-33.295 33.586-28.596 12.782 4.603 15.61 23.205 5.019 28.857L844.67 768.3s-8.044 8.308-4.987 19.864c7.398 27.958 27.757 35.014 27.757 35.014zm36.71-32.972s39.596-.713 49.24-34.117c6.745-23.36-11.77-36.32-25.235-34.885-13.189 1.41-20.168 18.403-11.428 26.209l21.7-3.983s5.714 9.742.142 19.99c-13.481 24.803-34.418 26.787-34.418 26.786zm26.74 21.47c0-12.796 10.371-23.165 23.165-23.165s23.165 10.369 23.165 23.165a23.17 23.17 0 0 1-23.165 23.165 23.17 23.17 0 0 1-23.165-23.165zm-37.795 190.805c0-15.821 12.827-28.649 28.651-28.649s28.65 12.828 28.65 28.649-12.827 28.651-28.65 28.651-28.651-12.828-28.651-28.651zM780.928 829.961a17.07 17.07 0 0 1 17.067-17.067c9.426 0 17.068 7.642 17.068 17.068s-7.642 17.068-17.068 17.068a17.07 17.07 0 0 1-17.067-17.069zm-45.114 64.548c0-9.426 7.642-17.068 17.068-17.068s17.068 7.642 17.068 17.068-7.642 17.069-17.068 17.069-17.068-7.642-17.068-17.069zm38.085 43.824c0-4.232 3.429-7.664 7.663-7.664s7.662 3.432 7.662 7.664-3.43 7.662-7.662 7.662-7.663-3.431-7.663-7.662zm199.664 96.387c0-3.703 3-6.706 6.705-6.706s6.705 3.004 6.705 6.706-3.001 6.705-6.705 6.705-6.706-3.002-6.705-6.705zM783.364 900.031c0-6.06 4.912-10.972 10.974-10.972a10.97 10.97 0 0 1 10.971 10.972c0 6.06-4.912 10.972-10.971 10.972s-10.974-4.913-10.974-10.972zM642.545 1008.51a18.9 18.9 0 0 1 18.898-18.898c10.435 0 18.896 8.461 18.896 18.898s-8.461 18.898-18.896 18.898-18.899-8.463-18.898-18.898z"/><path d="M949.787 915.845s-65.741-27.549-58.051-91.057c6.461-53.328 47.336-60.352 71.463-52.2 29.293 9.898 28.338 59.713-7.629 62.152l-2.124-15.822-12.803-25.603s-31.7 3.047-33.528 48.158 36.576 68.884 42.672 74.372zm2.696.655s-20.658-17.343-26.626-29.387c-10.65-21.498-2.761-44.969 31.161-41.222 0 0-29.387 18.54-2.563 70.806 0 0-35.107-37.867-16.766-61.142.001 0-22.089 17.555 14.793 60.945zm23.067 27.138s-13.259-17.415-15.835-28.018c-4.59-18.919 5.844-36.09 32.032-27.068 0 0-26.574 9.43-14.672 55.596 0-.001-21.032-36.245-2.356-51.396 0 0-20.621 9.952.831 50.887zm-59.16-46.468s65.761 42.617 70.215 83.627c4.733 43.587-24.9 70.912-64.298 64.691-26.231-4.142-35.699-26.231-33.529-41.419 1.698-11.876 14.199-32.345 35.896-28.006l23.668 35.895s18.497-12.572 15.778-37.866c-3.946-36.685-47.731-76.922-47.731-76.922z"/><path d="M984.041 1010.38s11.6 9.452 10.846 24.061c-.64 12.425-10.254 14.646-15.974 12.821-4.285-1.367-9.27-8.285-4.338-15.778l11.833 5.127s4.436-.69 3.944-10.057c-.469-8.92-6.311-16.174-6.311-16.174zm-67.651 36.29s-30.374-1.183-39.841-22.879-20.904-56.407-59.563-57.985c0 0 6.706 13.017 7.495 28.795s9.861 50.886 76.132 52.069c0 0-44.576-.396-57.198-45.757.001 0 16.963 44.574 72.976 45.757zm-28.033-218.393s-8.846-19.277 1.67-32.016 28.518-30.808 17.304-55.367c0 0-5.987 8.281-15.559 13.749s-28.563 22.191-8.393 63.813c0 0-13.815-27.869 10.437-50.036.001 0-22.394 24.619-5.46 59.857zm-37.448 144.631s-3.944-5.525-3.944-21.697-6.312-30.373-32.739-33.135c0-.001 7.887 10.65 9.072 21.696s2.763 21.301 23.667 32.74c0 0-16.173-13.017-14.596-31.557.001 0 3.157 22.089 18.54 31.952zm-145.78-46.284s-4.691-4.904-6.994-20.911-10.576-29.165-37.127-28.134c0 0 6.983 9.755 8.17 23.532 1.221 14.17 9.229 22.584 31.991 25.683 0 0-17.864-10.579-18.944-29.153 0 0 6.272 21.413 22.904 28.983zm46.316 51.222s-9.449-2.919-31.815 4.507-44.909 5.216-60.861-30.068c0 0 18.351 6.021 34.173 2.587s30.728-5.959 56.15 17.701c0 0-25.432-16.394-50.348-5.699 0 0 32-5.776 52.702 10.972zm17.756 9.685s-8.714 5.753-17.642 28.983-25.837 40.14-65.319 29.515c0 0 17.21-10.941 25.01-26.152s15.725-29.068 52.068-33.957c0 0-30.418 9.769-38.385 37.265 0 0 16.727-29.982 44.268-35.654zM886.7 855.735s-5.708-5.66-24.619-8.733-34.316-13.154-32.523-44.581c0 0 10.954 11.25 23.644 14.732s24.379 7.276 33.785 33.896c0-.001-12.149-21.386-34.124-23.062 0 0 25.227 7.885 33.836 27.748zm-2.655 144.785s-16.568-27.217-4.733-69.819 6.703-67.849-16.175-77.71-47.848 3.488-52.856 22.089c-5.523 20.513 5.128 35.895 20.904 39.84 17.357 4.341 37.08-7.887 25.246-28.401.001 0-4.512 6.041-10.255 7.101-4.077.751-10.516-.62-13.018-5.917-6.704-14.2 10.65-25.245 22.486-15.777 8.558 6.846 12.621 26.034 4.733 52.462s-11.043 52.463 23.668 76.132zm29.584-52.464s-33.2 3.325-28.962 46.006c-3.625-8.473-12.198-33.783 5.293-51.924 21.302-22.09 53.648-3.944 58.776-.788 0 0-4.827 14.83-33.528 21.694-16.33 3.904-25.293 16.44-28.364 29.545-1.367-8.846-1.844-31.951 26.785-44.535z"/><path d="M812.621 838.282s8.704-18.032-9.047-28.286-35.896 2.367-40.234 13.411-4.338 34.713 16.963 41.813c26.524 8.841 45.757-16.175 71.79-14.992 0 0-23.271-7.098-45.361 1.974-15.86 6.514-27.15-2.381-28.401-7.89-1.972-8.678 3.944-13.805 7.493-14.989s26.798 8.959 26.798 8.959zm-39.326 190.688c-4.434 6.019-3.148 14.492 2.872 18.926a13.54 13.54 0 0 0 18.927-2.872 13.54 13.54 0 0 0-2.871-18.926 13.54 13.54 0 0 0-18.928 2.872z"/><path d="M797.449 1038.56s-2.922 15.607-19.08 13.81-21.811-18.396-19.387-27.488 16.312-23.896 33.444-19.038c30.894 8.761 31.578 38.838 70.051 38.838.001-.001-31.577 9.8-48.273-9.8-15.039-17.653-27.222-20.688-35.818-16.302-6.288 3.209-3.974 10.671-2.265 13.096s21.327 6.885 21.327 6.883zm1.515-32.35s-30.491-42.104-55.897-58.074-80.724-35.075-114.928 10.866c-30.175 40.532-12.129 83.132 14.387 90.403 22.916 6.28 49.357-7.195 46.043-35.122-2.092-17.635-19.251-26.667-31.558-24.142-11.819 2.425-9.403 28.41-6.5 30.588l15.97 5.806s-3.81 10.152-18.149 8.349c-15.779-1.983-38.996-32.673-12.501-71.147s80.91-26.277 102.657-12.723c32.281 20.12 60.476 55.197 60.476 55.195z"/><path d="M749.05 910.703s16.872 4.977 25.533-12.053c9.189-18.064.394-41.833-20.314-46.568s-38.559 5.151-46.548 27.043 4.735 47.336 24.261 60.649 38.754 30.769 46.152 40.532c0 0-21.007-26.035-36.685-38.459s-33.136-44.081-20.71-61.832 31.063-15.682 35.797-.594l-7.486 31.284zm23.225 59.048s-17.36-14.88-9.364-33.291c5.589-12.875 18.594-11.835 24.058-6.243 5.35 5.478 2.207 15.606-4.552 15.866l-8.193-9.754s-6.124 2.233-7.415 8.842c-3.122 15.996 5.466 24.58 5.466 24.58zm136.427-55.346a7.66 7.66 0 0 1 10.62 2.153 7.67 7.67 0 0 1-2.154 10.622c-3.526 2.339-8.283 1.374-10.622-2.156a7.66 7.66 0 0 1 2.156-10.619z"/><path d="M881.614 930.405s2.815-22.688 22.579-26.193c13.819-2.453 20.135 8.96 18.494 16.604-1.612 7.486-11.789 10.461-15.741 4.972l3.606-12.22s-5.246-3.87-11.468-1.294c-15.058 6.233-17.47 18.132-17.47 18.131zm-130.102-7.196c0-3.252 2.634-5.887 5.887-5.887s5.884 2.635 5.884 5.887-2.635 5.884-5.884 5.884a5.89 5.89 0 0 1-5.887-5.884z"/><path d="M750.264 947.339s-13.332-11.429-7.191-25.57c4.292-9.888 14.281-9.089 18.477-4.793 4.109 4.206 1.697 11.984-3.495 12.184l-6.294-7.491s-4.702 1.715-5.693 6.793c-2.399 12.284 4.195 18.876 4.195 18.876zm-107.411 33.539c.13 3.249 2.867 5.778 6.118 5.647 3.246-.13 5.773-2.869 5.643-6.118s-2.868-5.774-6.116-5.643-5.777 2.868-5.646 6.115z"/><path d="M640.64 956.818s-12.863 11.953-6.162 25.838c4.685 9.707 14.633 8.507 18.654 4.05 3.937-4.37 1.215-12.045-3.979-12.037l-5.989 7.739s-4.767-1.527-5.962-6.56c-2.889-12.179 3.437-19.03 3.438-19.03zm157.58.943a9.71 9.71 0 0 1 9.707-9.706 9.71 9.71 0 0 1 9.707 9.706 9.71 9.71 0 0 1-9.707 9.709 9.71 9.71 0 0 1-9.707-9.709z"/><path d="M796.162 997.561s-21.987-18.848-11.862-42.173c7.082-16.31 23.556-14.992 30.477-7.907 6.781 6.94 2.797 19.769-5.766 20.099l-10.378-12.357s-7.76 2.829-9.392 11.204c-3.956 20.262 6.921 31.135 6.921 31.134z"/></g></svg>